<svg width="110" height="38" viewBox="0 0 110 38" fill="none" xmlns="http://www.w3.org/2000/svg">
<path d="M16.452 25.3226C15.9722 25.3262 15.5105 25.1393 15.1683 24.8029C14.8261 24.4664 14.6314 24.008 14.627 23.5281V20.9072L18.2612 18.9913L18.2771 23.5144C18.2764 23.7531 18.2286 23.9893 18.1364 24.2094C18.0442 24.4296 17.9095 24.6294 17.74 24.7974C17.5704 24.9654 17.3693 25.0982 17.1483 25.1884C16.9273 25.2785 16.6907 25.3241 16.452 25.3226Z" fill="#FFE30F"/>
<path d="M19.7174 28.0416V16.4801L14.7256 19.177C14.2986 19.408 13.7979 19.4623 13.3313 19.328C12.8647 19.1938 12.4693 18.8819 12.2303 18.4592C12.1141 18.2504 12.0408 18.0204 12.0147 17.7829C11.9885 17.5453 12.0101 17.305 12.0782 17.0759C12.1462 16.8468 12.2593 16.6336 12.4109 16.4488C12.5624 16.264 12.7494 16.1113 12.9607 15.9998L22.0881 11.0672C22.2228 10.9941 22.3741 10.9574 22.5273 10.9605C22.6805 10.9636 22.8302 11.0065 22.9618 11.085C23.0934 11.1634 23.2023 11.2748 23.2778 11.408C23.3534 11.5413 23.393 11.6919 23.3928 11.8451V23.4066L28.3845 20.7097C28.8115 20.4784 29.3123 20.424 29.779 20.5582C30.2457 20.6925 30.641 21.0046 30.8799 21.4275C30.9961 21.6362 31.0696 21.866 31.0958 22.1035C31.1221 22.3409 31.1007 22.5812 31.0329 22.8103C30.965 23.0394 30.8521 23.2526 30.7008 23.4375C30.5494 23.6224 30.3627 23.7752 30.1515 23.8869L21.022 28.8163C20.8873 28.8894 20.736 28.9261 20.5828 28.923C20.4297 28.9199 20.28 28.877 20.1484 28.7985C20.0168 28.7201 19.9079 28.6087 19.8323 28.4755C19.7567 28.3422 19.7171 28.1916 19.7174 28.0384V28.0416Z" fill="#2357D1"/>
<path d="M11.7447 15.0614L18.2892 11.5284C18.2898 11.1026 18.1797 10.6839 17.9695 10.3135C17.7594 9.94315 17.4565 9.63383 17.0906 9.41596C16.7247 9.19809 16.3085 9.07917 15.8827 9.0709C15.4569 9.06262 15.0364 9.16527 14.6623 9.36876L7.84973 13.0484C7.63856 13.1602 7.45182 13.3129 7.30048 13.4978C7.14913 13.6827 7.03623 13.8959 6.96839 14.125C6.90055 14.3541 6.87914 14.5944 6.90542 14.8319C6.93169 15.0693 7.00512 15.2992 7.1214 15.5079C7.36006 15.9309 7.75531 16.2433 8.22203 16.3777C8.68875 16.5122 9.1896 16.4579 9.61673 16.2267L11.522 15.1996C11.5938 15.1511 11.6677 15.1036 11.7447 15.0614Z" fill="#5FDB89"/>
<path d="M40.8529 26.5V20.8008C41.225 21.2079 41.7143 21.5437 42.3207 21.8083C42.9271 22.0729 43.5542 22.2052 44.202 22.2052C45.1529 22.2052 46.0005 21.9644 46.7448 21.4826C47.489 21.0009 48.0747 20.3394 48.502 19.4981C48.9292 18.6568 49.1429 17.7001 49.1429 16.6281C49.1429 15.5561 48.9292 14.5995 48.502 13.7582C48.0747 12.9169 47.489 12.2587 46.7448 11.7838C46.0005 11.3089 45.1529 11.0714 44.202 11.0714C43.5129 11.0714 42.8582 11.2139 42.238 11.4989C41.6178 11.7838 41.1285 12.1434 40.7702 12.5776L40.7289 11.275H38V26.5H40.8529ZM43.3571 19.6428C42.5302 19.6428 41.8592 19.3431 41.3441 18.7437C40.829 18.1442 40.5714 17.3691 40.5714 16.4182C40.5714 15.4674 40.829 14.6957 41.3441 14.1031C41.8592 13.5105 42.5302 13.2143 43.3571 13.2143C44.184 13.2143 44.8551 13.514 45.3702 14.1134C45.8853 14.7129 46.1429 15.4812 46.1429 16.4182C46.1429 17.3691 45.8853 18.1442 45.3702 18.7437C44.8551 19.3431 44.184 19.6428 43.3571 19.6428ZM55.2599 22.2143C55.9863 22.2143 56.6545 22.0587 57.2644 21.7474C57.8743 21.4362 58.3711 21.0438 58.7549 20.5702V22.0113H61.5714V11.2947H58.7754V12.7154C58.4328 12.2283 57.9736 11.8325 57.398 11.5281C56.8224 11.2236 56.1508 11.0714 55.3832 11.0714C54.4375 11.0714 53.5912 11.3082 52.8442 11.7818C52.0973 12.2554 51.5079 12.9083 51.0762 13.7404C50.6444 14.5726 50.4286 15.5367 50.4286 16.6327C50.4286 17.7016 50.6444 18.6556 51.0762 19.4945C51.5079 20.3334 52.087 20.9965 52.8134 21.4836C53.5398 21.9707 54.3553 22.2143 55.2599 22.2143ZM55.7652 19.6428C54.9459 19.6428 54.2802 19.3475 53.7681 18.7569C53.256 18.1662 53 17.3901 53 16.4286C53 15.467 53.256 14.6909 53.7681 14.1003C54.2802 13.5096 54.9459 13.2143 55.7652 13.2143C56.5982 13.2143 57.2742 13.5096 57.7931 14.1003C58.312 14.6909 58.5714 15.467 58.5714 16.4286C58.5714 17.3901 58.312 18.1662 57.7931 18.7569C57.2742 19.3475 56.5982 19.6428 55.7652 19.6428ZM68.5339 26.9286L70.3723 22.2471L74.8571 11.5H71.6854L69.3622 18.0337C69.3083 18.1965 69.2578 18.3492 69.2107 18.4917C69.1635 18.6342 69.113 18.78 69.0592 18.9293C68.938 18.5494 68.8167 18.2169 68.6955 17.9319L65.9885 11.5H62.8571L67.7056 22.3081L65.7258 26.9286H68.5339ZM80.117 22.2143C80.8434 22.2143 81.5116 22.0587 82.1215 21.7474C82.7314 21.4362 83.2283 21.0438 83.612 20.5702V22.0113H86.4286V11.2947H83.6326V12.7154C83.2899 12.2283 82.8308 11.8325 82.2551 11.5281C81.6795 11.2236 81.0079 11.0714 80.2404 11.0714C79.2947 11.0714 78.4483 11.3082 77.7014 11.7818C76.9544 12.2554 76.3651 12.9083 75.9333 13.7404C75.5016 14.5726 75.2857 15.5367 75.2857 16.6327C75.2857 17.7016 75.5016 18.6556 75.9333 19.4945C76.3651 20.3334 76.9441 20.9965 77.6705 21.4836C78.3969 21.9707 79.2124 22.2143 80.117 22.2143ZM81.0509 19.6428C80.2316 19.6428 79.5659 19.3475 79.0538 18.7569C78.5418 18.1662 78.2857 17.3901 78.2857 16.4286C78.2857 15.467 78.5418 14.6909 79.0538 14.1003C79.5659 13.5096 80.2316 13.2143 81.0509 13.2143C81.8839 13.2143 82.5599 13.5096 83.0788 14.1003C83.5977 14.6909 83.8571 15.467 83.8571 16.4286C83.8571 17.3901 83.5977 18.1662 83.0788 18.7569C82.5599 19.3475 81.8839 19.6428 81.0509 19.6428ZM97.5714 22.2143V19.8295H92.4569L97.4097 12.9708V11.0714H89V13.435H94.0539L89 20.336V22.2143H97.5714ZM103.688 22.2143C104.415 22.2143 105.083 22.0587 105.693 21.7474C106.303 21.4362 106.8 21.0438 107.183 20.5702V22.0113H110V11.2947H107.204V12.7154C106.861 12.2283 106.402 11.8325 105.827 11.5281C105.251 11.2236 104.579 11.0714 103.812 11.0714C102.866 11.0714 102.02 11.3082 101.273 11.7818C100.526 12.2554 99.9365 12.9083 99.5047 13.7404C99.073 14.5726 98.8571 15.5367 98.8571 16.6327C98.8571 17.7016 99.073 18.6556 99.5047 19.4945C99.9365 20.3334 100.516 20.9965 101.242 21.4836C101.968 21.9707 102.784 22.2143 103.688 22.2143ZM104.622 19.6428C103.803 19.6428 103.137 19.3475 102.625 18.7569C102.113 18.1662 101.857 17.3901 101.857 16.4286C101.857 15.467 102.113 14.6909 102.625 14.1003C103.137 13.5096 103.803 13.2143 104.622 13.2143C105.455 13.2143 106.131 13.5096 106.65 14.1003C107.169 14.6909 107.429 15.467 107.429 16.4286C107.429 17.3901 107.169 18.1662 106.65 18.7569C106.131 19.3475 105.455 19.6428 104.622 19.6428Z" fill="#0E2354"/>
</svg>